<svg width="332" height="215" viewBox="0 0 332 215" fill="none" xmlns="http://www.w3.org/2000/svg">
<path fill-rule="evenodd" clip-rule="evenodd" d="M45.7704 181.298C81.7291 187.715 119.721 172.932 142.053 140.149C164.386 107.367 164.929 65.5835 146.795 33.0004C110.836 26.583 72.8447 41.3663 50.5123 74.1488C28.1799 106.931 27.6366 148.715 45.7704 181.298Z" fill="#9B55F6"/>
<path d="M45.4453 103.785C45.4453 98.4336 46.5 93.3555 48.6094 88.5508C50.7188 83.707 53.7852 79.4688 57.8086 75.8359C61.8711 72.2031 66.8516 69.332 72.75 67.2227C78.6875 65.0742 85.4453 64 93.0234 64C100.953 64 107.828 64.9766 113.648 66.9297C119.469 68.8438 124.293 71.5195 128.121 74.957C131.949 78.3945 134.781 82.457 136.617 87.1445C138.492 91.832 139.43 96.9297 139.43 102.438C139.43 106.188 138.922 109.762 137.906 113.16C136.891 116.559 135.387 119.723 133.395 122.652C131.441 125.582 129 128.219 126.07 130.562C123.18 132.906 119.859 134.879 116.109 136.48L126.656 153.121H110.484L102.281 140.113C100.797 140.309 99.2734 140.465 97.7109 140.582C96.1484 140.699 94.5469 140.758 92.9062 140.758C88.6875 140.758 84.5859 140.406 80.6016 139.703C76.6172 139 72.8672 137.965 69.3516 136.598C65.8359 135.191 62.6133 133.473 59.6836 131.441C56.7539 129.371 54.2344 126.969 52.125 124.234C50.0156 121.461 48.375 118.375 47.2031 114.977C46.0312 111.578 45.4453 107.848 45.4453 103.785ZM134.977 157.223L122.32 137.301C125.445 135.66 128.316 133.648 130.934 131.266C133.551 128.883 135.797 126.207 137.672 123.238C139.547 120.23 141.012 116.988 142.066 113.512C143.121 109.996 143.648 106.305 143.648 102.438C143.648 99.1953 143.199 95.9922 142.301 92.8281C141.402 89.625 140.113 86.5781 138.434 83.6875C136.793 80.7969 134.781 78.1016 132.398 75.6016C130.055 73.1016 127.398 70.9141 124.43 69.0391C127.828 70.6406 130.855 72.6133 133.512 74.957C136.207 77.3008 138.473 79.918 140.309 82.8086C142.184 85.6602 143.59 88.7656 144.527 92.125C145.504 95.4453 145.992 98.8828 145.992 102.438C145.992 106.383 145.484 110.133 144.469 113.688C143.492 117.242 142.105 120.543 140.309 123.59C138.512 126.598 136.363 129.332 133.863 131.793C131.363 134.254 128.609 136.383 125.602 138.18L139.137 159.449H114.234V157.223H134.977ZM60.0938 103.316C60.0938 107.77 60.9141 111.734 62.5547 115.211C64.1953 118.688 66.4609 121.637 69.3516 124.059C72.2422 126.441 75.6406 128.258 79.5469 129.508C83.4922 130.758 87.7695 131.383 92.3789 131.383C93.8242 131.383 95.25 131.324 96.6562 131.207L86.9883 115.855H103.16L110.309 127.223C112.691 125.934 114.781 124.391 116.578 122.594C118.375 120.797 119.879 118.844 121.09 116.734C122.301 114.586 123.219 112.301 123.844 109.879C124.469 107.457 124.781 104.977 124.781 102.438C124.781 98.0234 124.039 94.0195 122.555 90.4258C121.07 86.832 118.941 83.7852 116.168 81.2852C113.434 78.7461 110.074 76.793 106.09 75.4258C102.145 74.0586 97.7109 73.375 92.7891 73.375C88.0234 73.375 83.6289 74.0977 79.6055 75.543C75.6211 76.9492 72.1836 78.9609 69.293 81.5781C66.4023 84.1953 64.1367 87.3594 62.4961 91.0703C60.8945 94.7422 60.0938 98.8242 60.0938 103.316ZM64.3125 103.492C64.3125 99.8984 64.9375 96.5195 66.1875 93.3555C67.4766 90.1914 69.332 87.4375 71.7539 85.0938C74.1758 82.75 77.1445 80.8945 80.6602 79.5273C84.2148 78.1602 88.2578 77.4766 92.7891 77.4766C97.6719 77.4766 101.969 78.375 105.68 80.1719C109.43 81.9297 112.594 84.4688 115.172 87.7891C111.5 84.7812 107.848 82.6914 104.215 81.5195C100.582 80.3086 96.7734 79.7031 92.7891 79.7031C88.6484 79.7031 84.957 80.3281 81.7148 81.5781C78.4727 82.8281 75.7383 84.5469 73.5117 86.7344C71.2852 88.8828 69.5859 91.4023 68.4141 94.293C67.2422 97.1836 66.6562 100.25 66.6562 103.492C66.6562 106.07 67.1055 108.551 68.0039 110.934C68.9414 113.277 70.2695 115.465 71.9883 117.496C73.7461 119.488 75.8555 121.305 78.3164 122.945C80.7773 124.547 83.5508 125.895 86.6367 126.988C83.043 126.441 79.8594 125.465 77.0859 124.059C74.3516 122.613 72.0273 120.855 70.1133 118.785C68.1992 116.715 66.7539 114.391 65.7773 111.812C64.8008 109.195 64.3125 106.422 64.3125 103.492ZM112.887 118.023L114.469 120.484L112.594 121.891L110.133 118.023H112.887ZM58.9805 135.016C60.9727 136.461 63.2383 137.789 65.7773 139C68.3164 140.172 71.0312 141.188 73.9219 142.047C76.8516 142.945 79.918 143.629 83.1211 144.098C86.3242 144.605 89.5859 144.859 92.9062 144.859C94.7812 144.859 96.3828 144.801 97.7109 144.684C99.0391 144.605 100.445 144.449 101.93 144.215L103.277 146.324C102.301 146.52 100.875 146.695 99 146.852C97.1641 147.008 95.1328 147.086 92.9062 147.086C85.5234 147.086 78.9609 146.09 73.2188 144.098C67.5156 142.145 62.7695 139.117 58.9805 135.016Z" fill="white"/>
</svg>
