<svg width="442" height="215" viewBox="0 0 442 215" fill="none" xmlns="http://www.w3.org/2000/svg">
<path d="M186.833 161.349C171.713 161.349 164.153 151.069 164.153 130.509C164.153 124.989 165.073 115.909 166.913 103.269H190.193V129.189C190.193 138.469 192.793 143.109 197.993 143.109C202.553 143.109 204.833 138.949 204.833 130.629C204.833 129.989 204.833 129.309 204.833 128.589L203.753 103.269H230.753L228.233 160.149H207.953L206.633 149.109C206.473 149.429 206.273 149.869 206.033 150.429C205.793 150.989 205.113 151.989 203.993 153.429C202.953 154.789 201.753 156.029 200.393 157.149C199.033 158.189 197.153 159.149 194.753 160.029C192.353 160.909 189.713 161.349 186.833 161.349ZM266.541 104.949L268.581 104.229L264.501 160.149H241.821L237.981 104.229C242.541 106.069 247.381 106.989 252.501 106.989C257.701 106.989 262.381 106.309 266.541 104.949ZM253.221 101.709C249.221 101.709 245.861 100.509 243.141 98.1092C240.421 95.7092 239.061 92.5892 239.061 88.7492C239.061 84.8292 240.381 81.7092 243.021 79.3892C245.741 76.9892 249.101 75.7892 253.101 75.7892C257.181 75.7892 260.581 76.9892 263.301 79.3892C266.021 81.7892 267.381 84.9092 267.381 88.7492C267.381 92.5892 266.021 95.7092 263.301 98.1092C260.581 100.509 257.221 101.709 253.221 101.709ZM276.313 160.149V150.069L298.513 119.109L275.833 123.789L278.833 103.269H330.553V113.949L309.673 146.229L330.193 139.989V160.149H276.313ZM366.268 104.949L368.308 104.229L364.228 160.149H341.548L337.708 104.229C342.268 106.069 347.108 106.989 352.228 106.989C357.428 106.989 362.108 106.309 366.268 104.949ZM352.948 101.709C348.948 101.709 345.588 100.509 342.868 98.1092C340.148 95.7092 338.788 92.5892 338.788 88.7492C338.788 84.8292 340.108 81.7092 342.748 79.3892C345.468 76.9892 348.828 75.7892 352.828 75.7892C356.908 75.7892 360.308 76.9892 363.028 79.3892C365.748 81.7892 367.108 84.9092 367.108 88.7492C367.108 92.5892 365.748 95.7092 363.028 98.1092C360.308 100.509 356.948 101.709 352.948 101.709Z" fill="white"/>
<path d="M397.879 145.269C393.959 149.989 391.999 154.949 391.999 160.149H374.359C374.359 149.349 379.519 139.309 389.839 130.029L375.799 103.269H405.679L412.399 116.109C413.359 115.389 414.279 113.789 415.159 111.309C416.039 108.749 416.479 106.069 416.479 103.269H434.119C434.119 114.869 429.719 124.549 420.919 132.309L435.559 160.149H405.799L397.879 145.269Z" fill="#9B55F6"/>
<path fill-rule="evenodd" clip-rule="evenodd" d="M47.0875 181.298C84.0809 187.715 123.166 172.932 146.141 140.149C169.116 107.367 169.675 65.5835 151.019 33.0003C114.026 26.583 74.9408 41.3663 51.9658 74.1488C28.9908 106.931 28.4319 148.715 47.0875 181.298Z" fill="#9B55F6"/>
<path d="M45.9986 103.934C45.9986 98.5828 47.0532 93.5046 49.1626 88.7C51.272 83.8562 54.3384 79.6179 58.3618 75.9851C62.4243 72.3523 67.4048 69.4812 73.3032 67.3718C79.2407 65.2234 85.9986 64.1492 93.5767 64.1492C101.506 64.1492 108.381 65.1257 114.202 67.0789C120.022 68.9929 124.846 71.6687 128.674 75.1062C132.502 78.5437 135.334 82.6062 137.17 87.2937C139.045 91.9812 139.983 97.0789 139.983 102.587C139.983 106.337 139.475 109.911 138.459 113.309C137.444 116.708 135.94 119.872 133.948 122.802C131.995 125.731 129.553 128.368 126.624 130.712C123.733 133.055 120.413 135.028 116.663 136.63L127.209 153.27H111.038L102.834 140.262C101.35 140.458 99.8267 140.614 98.2642 140.731C96.7017 140.848 95.1001 140.907 93.4595 140.907C89.2407 140.907 85.1392 140.555 81.1548 139.852C77.1704 139.149 73.4204 138.114 69.9048 136.747C66.3892 135.341 63.1665 133.622 60.2368 131.591C57.3072 129.52 54.7876 127.118 52.6782 124.384C50.5689 121.61 48.9282 118.524 47.7564 115.126C46.5845 111.727 45.9986 107.997 45.9986 103.934ZM135.53 157.372L122.874 137.45C125.999 135.809 128.87 133.798 131.487 131.415C134.104 129.032 136.35 126.356 138.225 123.387C140.1 120.38 141.565 117.137 142.62 113.661C143.674 110.145 144.202 106.454 144.202 102.587C144.202 99.3445 143.752 96.1414 142.854 92.9773C141.956 89.7742 140.667 86.7273 138.987 83.8367C137.346 80.946 135.334 78.2507 132.952 75.7507C130.608 73.2507 127.952 71.0632 124.983 69.1882C128.381 70.7898 131.409 72.7625 134.065 75.1062C136.76 77.45 139.026 80.0671 140.862 82.9578C142.737 85.8093 144.143 88.9148 145.081 92.2742C146.057 95.5945 146.545 99.032 146.545 102.587C146.545 106.532 146.038 110.282 145.022 113.837C144.045 117.391 142.659 120.692 140.862 123.739C139.065 126.747 136.917 129.481 134.417 131.942C131.917 134.403 129.163 136.532 126.155 138.329L139.69 159.598H114.788V157.372H135.53ZM60.647 103.466C60.647 107.919 61.4673 111.884 63.1079 115.36C64.7486 118.837 67.0142 121.786 69.9048 124.208C72.7954 126.591 76.1939 128.407 80.1001 129.657C84.0454 130.907 88.3228 131.532 92.9322 131.532C94.3775 131.532 95.8032 131.473 97.2095 131.356L87.5415 116.005H103.713L110.862 127.372C113.245 126.083 115.334 124.54 117.131 122.743C118.928 120.946 120.432 118.993 121.643 116.884C122.854 114.735 123.772 112.45 124.397 110.028C125.022 107.606 125.334 105.126 125.334 102.587C125.334 98.1726 124.592 94.1687 123.108 90.575C121.624 86.9812 119.495 83.9343 116.721 81.4343C113.987 78.8953 110.627 76.9421 106.643 75.575C102.698 74.2078 98.2642 73.5242 93.3423 73.5242C88.5767 73.5242 84.1822 74.2468 80.1587 75.6921C76.1743 77.0984 72.7368 79.1101 69.8462 81.7273C66.9556 84.3445 64.69 87.5085 63.0493 91.2195C61.4478 94.8914 60.647 98.9734 60.647 103.466ZM64.8657 103.641C64.8657 100.048 65.4907 96.6687 66.7407 93.5046C68.0298 90.3406 69.8853 87.5867 72.3072 85.2429C74.729 82.8992 77.6978 81.0437 81.2134 79.6765C84.7681 78.3093 88.8111 77.6257 93.3423 77.6257C98.2251 77.6257 102.522 78.5242 106.233 80.321C109.983 82.0789 113.147 84.6179 115.725 87.9382C112.053 84.9304 108.401 82.8406 104.768 81.6687C101.135 80.4578 97.3267 79.8523 93.3423 79.8523C89.2017 79.8523 85.5103 80.4773 82.2681 81.7273C79.0259 82.9773 76.2915 84.696 74.065 86.8835C71.8384 89.032 70.1392 91.5515 68.9673 94.4421C67.7954 97.3328 67.2095 100.399 67.2095 103.641C67.2095 106.219 67.6587 108.7 68.5572 111.083C69.4947 113.427 70.8228 115.614 72.5415 117.645C74.2993 119.637 76.4087 121.454 78.8697 123.094C81.3306 124.696 84.104 126.044 87.19 127.137C83.5962 126.591 80.4126 125.614 77.6392 124.208C74.9048 122.762 72.5806 121.005 70.6665 118.934C68.7525 116.864 67.3072 114.54 66.3306 111.962C65.354 109.344 64.8657 106.571 64.8657 103.641ZM113.44 118.173L115.022 120.634L113.147 122.04L110.686 118.173H113.44ZM59.5337 135.165C61.5259 136.61 63.7915 137.938 66.3306 139.149C68.8697 140.321 71.5845 141.337 74.4751 142.196C77.4048 143.094 80.4712 143.778 83.6743 144.247C86.8775 144.755 90.1392 145.009 93.4595 145.009C95.3345 145.009 96.9361 144.95 98.2642 144.833C99.5923 144.755 100.999 144.598 102.483 144.364L103.831 146.473C102.854 146.669 101.428 146.844 99.5532 147.001C97.7173 147.157 95.6861 147.235 93.4595 147.235C86.0767 147.235 79.5142 146.239 73.772 144.247C68.0689 142.294 63.3228 139.266 59.5337 135.165Z" fill="white"/>
</svg>
